<svg width="130" height="56" viewBox="0 0 130 56" fill="none" xmlns="http://www.w3.org/2000/svg">
<path d="M19.075 41.3302H10.2979V13.2266L19.075 20.3794V41.3302Z" fill="#E30613"/>
<path d="M47.9209 15.8036L53.6816 8.30469H25.1729V41.323H33.9501V29.394H40.3912L46.2426 21.8951H33.9501V15.8036H47.9209Z" fill="#E30613"/>
<path d="M10.2964 13.2194L4.17285 8.30469H10.2964V13.2194Z" fill="#E30613"/>
<path d="M10.2967 8.3065L0 0H10.2967V8.3065Z" fill="#E30613"/>
<path d="M69.1275 41.9458C65.7935 41.9458 62.7544 41.2075 60.1009 39.7538C57.4246 38.3002 55.2927 36.2467 53.7731 33.6624C52.2536 31.0782 51.4824 28.1247 51.4824 24.8714C51.4824 21.618 52.2536 18.6645 53.7731 16.0803C55.2927 13.4961 57.4473 11.4425 60.1689 9.98886C62.8678 8.53522 65.9296 7.79688 69.2862 7.79688C72.0759 7.79688 74.6614 8.28141 76.9747 9.25051C78.9252 10.0812 80.6489 11.2349 82.1004 12.6885L82.6221 13.2192L77.7005 19.6567L77.0428 18.9414C74.979 16.7264 72.5748 15.665 69.6491 15.665C67.8347 15.665 66.2017 16.0572 64.7956 16.8187C63.4121 17.5801 62.3235 18.6645 61.5523 20.049C60.7812 21.4334 60.373 23.0716 60.373 24.8944C60.373 26.7172 60.7585 28.2862 61.5523 29.6937C62.3235 31.0782 63.4121 32.1626 64.7956 32.9471C66.1791 33.7316 67.7894 34.1239 69.5811 34.1239C71.3728 34.1239 72.915 33.7778 74.3212 33.0856L74.4119 29.5091H70.3069L64.4554 21.9872H82.486V37.5619L82.1685 37.8157C80.4221 39.1539 78.3809 40.1922 76.0902 40.9075C73.8222 41.6228 71.4862 41.9689 69.1955 41.9689" fill="#E30613"/>
<path d="M19.0977 8.30469H10.2979L19.0977 15.4806V8.30469Z" fill="#E30613"/>
<path d="M107.298 32.257C107.298 33.3876 106.346 34.2875 105.189 34.2875C104.032 34.2875 103.103 33.3876 103.103 32.257C103.103 31.1264 104.055 30.2266 105.212 30.2266C106.368 30.2266 107.298 31.1264 107.298 32.257Z" fill="#E30613"/>
<path d="M91.9199 29.3001C92.6683 29.277 93.2806 29.2539 93.7116 29.3001C94.6414 29.4154 94.7775 30.2692 94.8002 30.4999C94.8002 30.7306 94.8002 30.9152 94.8002 31.0537L93.0992 46.813C93.0539 47.2052 93.0765 47.5282 93.1446 47.7821C93.2126 48.0359 93.326 48.2205 93.5074 48.3589C93.6662 48.4973 93.893 48.5896 94.1652 48.6358C94.4373 48.6819 94.7549 48.705 95.1404 48.705C95.7528 48.705 96.2971 48.6358 96.7961 48.5204C97.295 48.405 97.7259 48.2666 98.1115 48.1051C98.497 47.9436 98.8146 47.8051 99.0867 47.6898C99.3589 47.5513 99.563 47.4821 99.6991 47.4821C99.8806 47.4821 99.9939 47.5282 100.085 47.6436C100.175 47.759 100.198 47.9205 100.175 48.1282C100.13 48.4973 100.062 48.7742 99.9713 48.9357C99.8805 49.0973 99.7218 49.2126 99.4723 49.3049C98.6105 49.6049 97.6352 49.8356 96.592 49.974C95.526 50.1125 94.3466 50.1817 93.0312 50.1817C89.9921 50.1817 88.8808 49.2126 88.5859 48.1282C88.4952 47.7359 88.4725 47.2514 88.5405 46.6514L90.2642 31.3306C90.2642 31.1229 90.2643 29.3462 91.9199 29.277" fill="#E30613"/>
<path d="M106.797 36.6425C106.797 36.4348 106.661 35.6503 105.799 35.558C105.413 35.5119 104.846 35.5119 104.143 35.558C102.646 35.6273 102.646 37.2424 102.646 37.427L101.467 48.5716C101.467 48.71 101.467 48.8715 101.467 49.0792C101.467 49.2869 101.603 50.0714 102.465 50.1637C102.85 50.2098 103.417 50.2098 104.098 50.1637C105.595 50.0944 105.595 48.4793 105.617 48.2947L106.797 37.1501C106.797 37.0117 106.797 36.8502 106.797 36.6425Z" fill="#E30613"/>
<path d="M117.754 30.2507C117.504 30.2507 117.255 30.2969 117.005 30.4122C116.756 30.5276 116.552 30.7122 116.348 30.9429C116.143 31.1967 115.985 31.4967 115.849 31.8889C115.712 32.2812 115.599 32.7427 115.554 33.2734L115.191 36.7113H117.867C118.049 36.7113 118.185 36.8728 118.162 37.0574L118.071 37.9804C118.071 38.165 117.89 38.3265 117.686 38.3265H115.009L114.08 47.256C113.943 48.525 113.649 49.6787 113.218 50.7632C112.787 51.8246 112.174 52.7475 111.449 53.532C110.7 54.3165 109.816 54.9164 108.772 55.3548C107.729 55.7932 106.55 56.0009 105.234 56.0009C104.758 56.0009 104.327 55.9547 103.896 55.8855C103.465 55.8163 103.102 55.7009 102.785 55.5625C102.467 55.424 102.218 55.2625 102.059 55.0549C101.878 54.8703 101.81 54.6626 101.832 54.4319C101.832 54.2703 101.9 54.0858 101.946 53.9242C102.014 53.7627 102.105 53.6012 102.195 53.4628C102.309 53.3243 102.422 53.209 102.558 53.1167C102.694 53.0244 102.853 52.9782 103.034 52.9782C103.125 52.9782 103.216 53.0244 103.284 53.1397C103.352 53.232 103.42 53.3705 103.488 53.5089C103.556 53.6474 103.624 53.8319 103.715 53.9935C103.805 54.178 103.919 54.3396 104.055 54.5011C104.214 54.6395 104.395 54.778 104.622 54.8703C104.849 54.9626 105.144 55.0318 105.484 55.0318C105.96 55.0318 106.368 54.9395 106.754 54.7549C107.139 54.5703 107.457 54.2934 107.752 53.9704C108.047 53.6243 108.296 53.232 108.523 52.7936C108.75 52.3322 108.931 51.8476 109.09 51.34C109.249 50.8093 109.385 50.2786 109.475 49.7018C109.589 49.1249 109.657 48.5712 109.725 47.9943L110.723 38.3495H108.546C108.364 38.3495 108.228 38.188 108.251 38.0034L108.341 37.0805C108.341 36.8959 108.523 36.7344 108.727 36.7344H110.904L111.086 35.0962C111.176 34.2886 111.358 33.5733 111.607 32.9503C111.88 32.3504 112.197 31.8197 112.56 31.4044C112.923 30.966 113.331 30.6199 113.785 30.3661C114.216 30.0892 114.669 29.8815 115.1 29.72C115.554 29.5585 115.962 29.4431 116.37 29.397C116.778 29.3508 117.141 29.3047 117.436 29.3047C118.094 29.3047 118.661 29.3508 119.16 29.4431C119.659 29.5354 120.067 29.6739 120.385 29.8354C120.702 29.9969 120.952 30.1815 121.088 30.3892C121.246 30.5968 121.292 30.8275 121.269 31.0352C121.269 31.1967 121.201 31.3813 121.133 31.5428C121.065 31.7274 120.974 31.8659 120.861 32.0274C120.747 32.1658 120.634 32.2812 120.498 32.3735C120.362 32.4658 120.203 32.5119 120.044 32.5119C119.954 32.5119 119.863 32.4658 119.795 32.3504C119.727 32.235 119.659 32.0966 119.591 31.9351C119.523 31.7736 119.432 31.589 119.341 31.3813C119.251 31.1737 119.137 31.0121 119.001 30.8276C118.865 30.666 118.684 30.5276 118.479 30.4122C118.275 30.2969 118.026 30.2507 117.708 30.2507" fill="#E30613"/>
<path d="M122.043 43.9379C121.93 44.0071 121.952 44.2148 121.998 44.5609C122.043 44.907 122.134 45.2531 122.27 45.6222C122.406 45.9683 122.565 46.3145 122.769 46.6375C123.381 47.5604 124.243 47.8835 124.606 47.9988C125.831 48.368 127.01 48.068 128.28 47.099C128.779 46.7298 129.097 46.9144 129.119 47.2605C129.142 47.5604 129.119 48.2757 128.598 48.6218C128.121 48.9679 126.466 50.237 123.132 50.2139C122.338 50.2139 121.567 50.0755 120.864 49.7755C120.138 49.4755 119.526 49.0371 119.004 48.4603C118.482 47.8835 118.097 47.1451 117.825 46.2683C117.575 45.3915 117.507 44.3763 117.621 43.1995C117.711 42.3458 117.893 41.5844 118.188 40.8691C118.482 40.1538 118.823 39.5308 119.254 38.954C119.684 38.3771 120.161 37.8926 120.682 37.4542C121.204 37.0158 121.748 36.6697 122.315 36.3928C122.882 36.1159 123.449 35.8852 124.016 35.7467C124.583 35.6083 125.128 35.5391 125.649 35.5391C126.33 35.5391 126.919 35.6083 127.396 35.7698C129.21 36.3467 129.55 37.8234 129.437 38.6309C129.369 39.0693 129.233 39.4616 128.938 39.8077C128.643 40.1538 128.28 40.4537 127.849 40.7306L122.066 43.984L122.043 43.9379ZM125.037 40.4076C125.196 40.3153 125.286 40.2461 125.377 40.1769C125.468 40.1076 125.536 40.0153 125.581 39.9231C125.627 39.8308 125.695 39.7154 125.717 39.5539C125.763 39.4154 125.808 38.8847 125.808 38.6079C125.808 38.331 125.74 38.0541 125.649 37.8003C125.559 37.5465 125.422 37.3388 125.264 37.1773C125.105 37.0158 124.878 36.9235 124.629 36.9235C124.288 36.9235 124.016 37.0158 123.744 37.2234C123.495 37.4311 123.268 37.6849 123.086 38.0079C122.905 38.331 122.746 38.6771 122.61 39.0924C122.474 39.5077 122.361 39.9 122.27 40.3153C122.179 40.7076 122.043 41.4921 121.93 42.092L125.014 40.4076H125.037Z" fill="#E30613"/>
</svg>
